<?xml version="1.0" standalone="no"?>
<!DOCTYPE svg PUBLIC "-//W3C//DTD SVG 20010904//EN"
 "http://www.w3.org/TR/2001/REC-SVG-20010904/DTD/svg10.dtd">
<svg version="1.0" xmlns="http://www.w3.org/2000/svg"
 width="741.000000pt" height="741.000000pt" viewBox="0 0 741.000000 741.000000"
 preserveAspectRatio="xMidYMid meet">
<metadata>
Created by potrace 1.14, written by Peter Selinger 2001-2017
</metadata>
<g transform="translate(0.000000,741.000000) scale(0.100000,-0.100000)"
fill="#000000" stroke="none">
<path d="M3672 7268 c-7 -7 -12 -17 -12 -22 0 -6 5 -4 10 4 6 9 10 10 10 3 0
-20 -18 -24 -29 -6 -6 10 -11 13 -11 7 0 -23 -30 -23 -51 -1 -13 14 -18 16
-14 6 7 -19 -21 -34 -31 -17 -5 7 -2 8 7 3 8 -5 11 -4 6 1 -10 11 -58 14 -51
2 3 -4 10 -6 15 -3 5 4 9 2 9 -4 0 -5 -16 -8 -35 -7 -19 2 -36 -1 -39 -6 -2
-5 -3 -3 -2 4 2 7 10 12 20 10 9 -2 16 1 16 7 0 5 -6 8 -12 6 -40 -10 -57 -18
-52 -26 6 -11 -25 0 -45 15 -11 8 -13 8 -8 0 4 -7 0 -15 -9 -18 -8 -3 -12 -2
-9 4 3 5 -1 7 -9 4 -9 -3 -14 -9 -13 -12 1 -4 -2 -7 -8 -7 -5 0 -9 2 -8 5 1 3
-18 5 -43 6 -24 0 -39 -3 -33 -7 8 -4 8 -9 1 -13 -6 -4 -16 2 -22 11 -10 16
-11 15 -6 -7 5 -24 4 -24 -9 -6 -13 17 -15 18 -15 3 0 -9 -4 -17 -10 -17 -5 0
-6 8 -3 18 6 15 5 15 -10 3 -9 -7 -14 -18 -10 -24 3 -6 1 -7 -5 -3 -6 4 -10
12 -8 19 1 7 1 9 -1 4 -3 -4 -10 -4 -15 -1 -6 4 -8 2 -4 -4 3 -6 2 -13 -4 -17
-5 -3 -10 -1 -10 4 0 6 -5 11 -11 11 -5 0 -8 -3 -6 -7 3 -5 -8 -8 -24 -9 -18
-1 -26 3 -22 10 5 8 3 8 -8 0 -8 -6 -24 -10 -37 -9 -13 1 -26 -3 -29 -8 -3 -6
-1 -7 5 -3 6 3 14 1 18 -6 4 -7 4 -10 -1 -6 -4 4 -15 2 -23 -5 -11 -8 -14 -8
-9 0 4 6 3 14 -3 18 -5 3 -10 -1 -10 -9 0 -10 -6 -13 -17 -9 -10 4 -14 2 -9
-5 4 -7 -1 -10 -14 -7 -11 2 -26 -3 -34 -11 -11 -10 -15 -11 -19 -1 -3 9 -8 8
-22 -3 -14 -12 -19 -12 -23 -2 -3 10 -7 10 -18 1 -11 -9 -14 -8 -15 2 0 8 -3
7 -8 -4 -4 -10 -9 -17 -11 -16 -3 1 -16 -4 -30 -11 l-25 -13 20 23 20 24 -24
-16 c-13 -9 -29 -14 -36 -12 -7 3 -16 0 -20 -5 -3 -6 -12 -8 -18 -4 -9 5 -9 3
0 -8 10 -12 8 -15 -8 -16 -11 -1 -17 3 -13 9 4 7 0 7 -13 -1 -11 -6 -24 -7
-28 -3 -5 4 -5 1 -1 -6 4 -7 12 -9 18 -6 7 4 8 2 4 -4 -5 -9 -13 -9 -28 -1
-12 6 -18 7 -14 1 3 -5 -2 -13 -11 -16 -9 -4 -20 -1 -25 6 -6 10 -8 9 -8 -4 0
-20 -20 -28 -42 -16 -13 6 -21 3 -30 -12 -7 -11 -16 -20 -21 -20 -4 0 -5 5 -1
12 4 7 3 8 -4 4 -7 -4 -12 -15 -12 -24 0 -10 -3 -13 -8 -7 -8 11 -15 11 -49 0
-13 -4 -20 -11 -17 -16 3 -5 -4 -9 -16 -9 -12 0 -19 -4 -16 -9 7 -11 -13 -9
-32 3 -7 4 -16 5 -19 2 -4 -3 -1 -6 5 -6 7 0 12 -5 12 -12 0 -6 -3 -8 -7 -5
-9 10 -34 -14 -26 -26 3 -6 1 -7 -6 -3 -6 4 -18 2 -26 -4 -12 -10 -15 -9 -16
6 0 16 -2 16 -9 -3 -5 -13 -12 -23 -16 -23 -3 0 -3 7 0 16 3 8 2 12 -4 9 -6
-3 -10 -12 -10 -18 0 -7 -14 -20 -30 -29 -17 -9 -30 -14 -30 -9 0 4 12 13 26
20 15 6 24 14 21 18 -4 3 -13 0 -21 -6 -8 -7 -21 -9 -27 -5 -7 4 -9 3 -5 -4 7
-11 -30 -52 -47 -52 -5 0 1 9 14 20 13 10 20 19 16 20 -5 0 -15 -7 -24 -15 -8
-8 -19 -13 -24 -10 -13 9 -11 -9 4 -24 10 -10 7 -10 -14 -2 -22 8 -26 7 -25
-7 1 -12 -8 -16 -32 -18 -18 0 -39 -7 -45 -14 -10 -10 -8 -10 9 -2 15 8 21 8
21 -1 0 -15 -35 -16 -57 -3 -8 5 -6 -1 5 -14 l20 -23 -22 12 c-18 9 -24 8 -35
-7 -7 -11 -21 -18 -30 -16 -10 1 -21 -3 -25 -8 -3 -7 -1 -8 5 -4 24 14 11 -12
-13 -28 -29 -19 -46 -22 -20 -3 14 11 15 16 5 22 -7 5 -11 4 -8 -1 6 -11 -28
-45 -36 -37 -12 12 -6 -13 6 -27 11 -13 11 -13 -2 -2 -18 15 -34 16 -24 1 4
-7 1 -10 -7 -7 -8 3 -20 -2 -28 -9 -11 -12 -15 -12 -22 -1 -5 7 -9 8 -9 3 0
-6 5 -16 10 -21 7 -7 6 -11 -5 -11 -8 0 -15 4 -15 9 0 4 -5 8 -10 8 -7 0 -7
-7 1 -21 7 -13 7 -19 1 -15 -6 4 -15 -2 -21 -11 -6 -10 -11 -13 -11 -8 0 6 6
17 13 24 10 10 9 11 -5 6 -17 -7 -22 -18 -19 -38 1 -4 -9 -2 -21 4 -22 12 -22
11 -8 -6 14 -17 13 -18 -3 -12 -15 6 -17 3 -12 -16 7 -22 7 -22 -9 -2 -13 18
-15 18 -16 3 0 -10 -9 -22 -20 -28 -12 -7 -18 -16 -13 -23 4 -7 0 -7 -10 2
-14 11 -17 11 -18 0 -1 -8 -1 -18 0 -23 1 -5 -6 -3 -15 5 -12 9 -15 9 -10 2 4
-7 3 -13 -2 -13 -5 0 -12 -10 -15 -22 -5 -18 -8 -19 -22 -8 -13 11 -15 10 -9
-4 5 -12 2 -15 -12 -9 -12 4 -15 3 -10 -5 4 -7 2 -12 -3 -12 -6 0 -10 -6 -9
-12 2 -8 -7 -13 -23 -13 -18 1 -25 -5 -26 -18 -1 -10 -7 -25 -14 -33 -9 -12
-15 -12 -27 -2 -13 11 -14 10 -8 -10 6 -17 3 -22 -9 -22 -9 0 -13 4 -10 10 3
6 -1 7 -10 4 -14 -6 -14 -8 2 -21 17 -14 17 -14 1 -9 -11 3 -17 0 -15 -7 1 -7
-4 -11 -12 -9 -8 2 -11 -3 -8 -12 6 -15 -18 -30 -33 -21 -5 3 -12 0 -16 -6 -4
-8 -3 -9 4 -5 7 4 12 3 12 -2 0 -17 -13 -22 -28 -9 -10 8 -13 8 -9 1 4 -7 0
-14 -8 -18 -8 -3 -15 -11 -15 -17 0 -8 6 -7 18 2 15 13 16 12 3 -4 -8 -9 -16
-15 -19 -13 -2 3 -11 -2 -19 -10 -8 -8 -19 -11 -25 -8 -5 4 -5 -4 2 -16 10
-18 9 -21 -1 -15 -9 6 -10 3 -5 -10 6 -16 4 -16 -11 -4 -15 12 -16 12 -11 -3
7 -17 -16 -33 -32 -23 -5 3 -12 0 -16 -6 -4 -8 -3 -9 4 -5 7 4 12 2 12 -3 0
-6 -7 -11 -16 -11 -11 0 -15 -6 -11 -20 3 -11 0 -23 -5 -27 -7 -3 -8 -1 -4 5
4 7 1 12 -9 12 -11 0 -15 -5 -11 -15 3 -9 0 -15 -8 -15 -13 0 -30 -34 -27 -53
1 -5 -3 -6 -9 -2 -5 3 -10 1 -10 -4 0 -6 -3 -10 -7 -10 -20 3 -26 -2 -13 -11
12 -8 10 -10 -9 -10 -21 0 -22 -2 -10 -17 10 -12 10 -15 1 -9 -7 4 -24 -2 -40
-15 -15 -12 -19 -19 -9 -16 21 8 23 -9 1 -17 -10 -4 -14 -12 -10 -22 6 -15 4
-15 -11 -3 -9 8 -14 9 -10 3 4 -7 1 -14 -7 -17 -9 -4 -12 -14 -9 -26 3 -13 1
-21 -6 -21 -7 0 -9 5 -5 13 5 8 2 8 -9 -2 -20 -16 -23 -25 -5 -15 7 4 1 -4
-15 -19 -15 -14 -27 -31 -27 -37 0 -6 -6 -8 -12 -5 -7 4 -4 -1 7 -11 16 -13
17 -16 3 -11 -10 3 -20 2 -23 -3 -4 -6 0 -10 7 -10 10 0 10 -2 0 -9 -8 -4 -14
-12 -13 -17 0 -18 -50 -65 -62 -58 -9 5 -9 3 1 -7 16 -18 15 -32 -2 -26 -10 4
-14 0 -11 -12 2 -12 -2 -18 -13 -17 -13 1 -17 -8 -17 -35 0 -31 -3 -35 -20
-32 -16 4 -17 3 -5 -6 13 -9 11 -14 -10 -33 -20 -19 -21 -19 -7 -2 14 17 14
21 3 21 -8 0 -14 -5 -13 -11 1 -6 -5 -10 -13 -8 -11 3 -10 -2 4 -17 19 -21 19
-21 0 -21 -16 0 -17 -2 -4 -10 11 -7 11 -10 2 -10 -8 0 -10 -5 -6 -12 5 -9 2
-8 -9 1 -15 12 -17 12 -11 -4 5 -12 4 -16 -3 -12 -6 4 -9 -3 -7 -18 1 -14 -3
-28 -8 -32 -6 -3 -8 -2 -5 4 3 5 0 10 -8 10 -8 0 -12 -4 -9 -9 3 -5 7 -21 10
-36 3 -20 2 -23 -5 -12 -9 13 -13 12 -28 -4 -16 -18 -16 -19 0 -7 9 8 17 9 17
3 0 -5 -11 -17 -25 -26 -21 -14 -23 -20 -15 -41 6 -15 6 -26 -1 -30 -5 -4 -7
-10 -4 -15 3 -4 -2 -11 -11 -14 -10 -4 -13 -2 -8 7 4 7 1 7 -7 -2 -11 -10 -11
-15 -1 -18 6 -3 12 -9 12 -14 0 -6 -5 -7 -12 -3 -8 5 -9 2 -5 -9 4 -11 1 -17
-8 -17 -7 0 -17 -4 -20 -10 -4 -6 1 -7 12 -3 15 6 16 4 5 -9 -10 -13 -10 -17
0 -20 8 -3 6 -7 -6 -11 -10 -4 -15 -3 -11 3 3 6 1 10 -4 10 -15 0 -14 -13 2
-29 7 -9 7 -11 1 -8 -14 8 -27 -20 -17 -36 4 -6 1 -8 -8 -5 -11 4 -15 -1 -15
-17 0 -13 3 -22 7 -19 4 2 11 0 14 -6 4 -6 1 -9 -7 -8 -7 2 -12 -3 -10 -11 3
-12 1 -12 -14 0 -16 13 -16 12 -5 -10 8 -14 9 -21 2 -17 -13 8 -26 -37 -17
-60 6 -15 4 -15 -10 -3 -16 13 -16 12 -5 -10 8 -15 9 -21 2 -17 -6 4 -11 1
-11 -8 0 -8 -7 -19 -16 -24 -15 -8 -15 -10 0 -15 9 -4 15 -2 13 5 -1 6 4 12
11 14 7 1 8 0 2 -3 -5 -2 -8 -8 -5 -12 2 -5 -3 -17 -11 -27 -9 -10 -12 -13 -8
-5 4 9 3 12 -4 7 -8 -5 -8 -15 -1 -32 7 -21 7 -25 -4 -21 -14 5 -17 -6 -17
-51 0 -13 -5 -20 -10 -17 -6 3 -10 1 -10 -4 0 -6 5 -11 11 -11 6 0 3 -7 -5
-16 -9 -8 -14 -19 -11 -24 3 -5 0 -11 -5 -13 -6 -3 -5 -4 2 -3 7 2 13 8 13 14
0 5 3 13 7 17 9 9 5 -16 -5 -32 -5 -7 -6 -17 -2 -22 3 -5 0 -13 -6 -17 -7 -4
-9 -3 -5 4 3 6 1 14 -6 18 -7 4 -10 4 -6 -1 4 -4 2 -15 -5 -23 -8 -11 -8 -14
0 -9 6 4 14 3 18 -3 3 -5 -1 -10 -10 -10 -9 0 -13 -5 -10 -10 4 -6 11 -8 16
-5 5 4 4 -6 -3 -20 -10 -22 -9 -28 3 -36 10 -7 5 -8 -16 -3 -22 4 -26 3 -16
-4 18 -13 23 -40 9 -49 -7 -4 -8 -1 -3 8 8 12 6 12 -8 0 -18 -14 -22 -22 -9
-20 21 4 24 -3 6 -16 -18 -13 -18 -14 6 -9 25 4 25 4 3 -7 -13 -7 -23 -16 -23
-21 0 -5 4 -7 9 -3 5 3 13 0 17 -6 4 -7 3 -9 -4 -5 -6 3 -13 2 -17 -4 -3 -5
-1 -10 5 -10 6 0 8 -5 5 -10 -4 -6 -10 -8 -15 -5 -5 3 -11 1 -14 -4 -4 -5 -1
-13 5 -17 8 -5 9 -3 4 6 -5 8 -4 11 3 6 6 -4 9 -13 6 -20 -3 -8 0 -17 6 -21 8
-5 8 -11 -1 -21 -6 -7 -9 -20 -6 -28 4 -10 1 -13 -9 -9 -7 3 -14 0 -14 -6 0
-6 5 -11 10 -11 6 0 10 -5 10 -11 0 -6 -7 -8 -16 -5 -9 3 -12 2 -9 -5 4 -5 2
-16 -4 -23 -8 -9 -7 -13 4 -13 8 0 12 4 9 9 -3 4 0 8 5 8 15 0 14 -6 -5 -34
-11 -18 -12 -26 -3 -32 8 -5 9 -3 4 6 -5 8 -4 11 3 7 11 -7 11 -32 -1 -43 -4
-4 -1 -14 6 -22 10 -13 9 -14 -9 -4 -17 9 -20 8 -20 -13 0 -13 4 -21 8 -19 5
3 5 10 2 16 -4 7 -2 8 4 4 9 -5 9 -13 1 -27 -7 -15 -7 -29 0 -51 8 -23 8 -29
-2 -25 -9 3 -12 -9 -13 -39 0 -42 8 -55 21 -34 3 6 1 10 -4 10 -6 0 -11 5 -11
11 0 8 5 8 15 -1 11 -9 12 -16 4 -26 -6 -7 -8 -18 -4 -23 3 -7 0 -8 -9 -5 -9
3 -16 1 -16 -4 0 -6 10 -14 21 -17 12 -4 17 -10 12 -14 -15 -10 -23 -63 -8
-58 6 3 12 -1 12 -9 0 -8 -5 -13 -12 -11 -6 3 -11 -8 -11 -28 0 -19 4 -31 8
-29 5 3 6 10 3 15 -3 5 1 6 10 2 13 -5 14 -7 3 -14 -7 -5 -9 -9 -4 -9 6 0 1
-7 -10 -15 -16 -13 -16 -14 -1 -9 12 4 17 1 17 -11 0 -9 -4 -14 -8 -11 -5 3
-9 -2 -9 -10 0 -8 6 -13 14 -10 7 3 13 1 13 -4 0 -6 -5 -10 -12 -10 -8 0 -9
-3 -1 -11 6 -6 7 -25 3 -50 -6 -33 -5 -37 6 -28 17 14 19 -2 2 -19 -9 -9 -9
-12 2 -12 11 0 11 -3 2 -12 -15 -15 -15 -28 -1 -28 5 0 7 5 3 12 -4 6 -3 8 3
5 7 -5 8 -20 3 -43 -6 -27 -5 -37 6 -41 12 -4 11 -8 -3 -19 -16 -12 -15 -13
12 -9 17 2 24 2 18 -1 -7 -3 -13 -15 -13 -25 0 -13 -4 -18 -12 -13 -7 4 -8 3
-4 -5 4 -6 10 -9 14 -7 4 2 12 -2 19 -9 9 -10 9 -15 1 -17 -6 -2 -12 -12 -14
-21 -1 -9 2 -15 7 -11 5 3 9 0 9 -6 0 -6 5 -8 12 -4 7 4 8 3 4 -5 -4 -6 -13
-8 -19 -4 -7 4 -5 -2 3 -12 9 -11 10 -16 2 -11 -6 4 -12 2 -12 -3 0 -6 7 -11
15 -11 17 0 20 -25 5 -35 -6 -4 -5 -13 2 -25 7 -10 15 -17 19 -14 14 8 18 -26
4 -40 -12 -12 -12 -16 4 -30 15 -14 20 -14 25 -4 3 7 3 2 0 -11 -5 -18 -3 -22
7 -16 11 6 12 5 2 -6 -18 -19 -16 -39 5 -40 14 0 14 -2 -3 -9 -11 -5 -14 -9
-7 -9 8 -1 12 -10 10 -23 -2 -17 2 -23 15 -22 9 1 17 -2 17 -7 0 -5 -8 -9 -17
-10 -14 0 -13 -2 4 -9 27 -11 31 -22 6 -14 -16 5 -16 4 -2 -8 18 -15 14 -42
-4 -31 -7 3 -8 2 -4 -3 5 -5 12 -9 15 -9 22 -1 32 -17 21 -37 -6 -11 -7 -18
-1 -15 10 7 32 -34 32 -59 0 -9 5 -12 13 -8 7 5 6 0 -3 -11 -14 -17 -13 -18 2
-12 22 8 33 -9 18 -28 -9 -10 -4 -20 19 -44 17 -18 31 -35 31 -39 0 -4 -7 2
-15 12 -13 17 -17 18 -28 6 -6 -7 -7 -10 -1 -7 16 9 47 -32 41 -54 -3 -13 2
-23 15 -30 15 -8 18 -17 13 -37 -6 -23 -5 -24 11 -11 11 9 15 9 10 1 -4 -7 -2
-12 6 -12 9 0 9 -3 -2 -10 -12 -8 -12 -10 5 -11 l20 0 -20 -9 c-19 -8 -18 -9
4 -9 13 -1 21 -4 18 -8 -4 -3 1 -12 11 -20 9 -8 11 -12 4 -8 -6 3 -12 1 -12
-4 0 -6 5 -11 10 -11 6 0 10 -7 10 -15 0 -8 12 -26 26 -40 22 -22 24 -28 12
-42 -7 -10 -8 -14 -1 -10 6 4 19 0 28 -9 13 -13 13 -19 3 -32 -10 -12 -10 -14
0 -8 11 6 17 -5 13 -26 0 -5 6 -8 15 -8 8 0 13 -4 9 -9 -3 -5 4 -12 15 -16 16
-5 18 -10 10 -25 -8 -15 -4 -23 20 -44 31 -25 40 -42 17 -31 -6 4 -1 -3 13
-16 14 -12 24 -26 22 -31 -1 -5 7 -7 20 -3 23 7 23 7 3 -9 -20 -15 -20 -15 5
-16 20 0 22 -2 10 -10 -13 -8 -12 -10 5 -11 11 -1 24 -1 30 1 5 1 1 -8 -9 -19
-18 -20 -13 -27 16 -22 10 1 20 -37 13 -49 -3 -6 1 -7 9 -4 9 3 16 1 16 -6 0
-6 4 -8 10 -5 14 9 13 -8 -2 -23 -7 -7 -8 -12 -2 -12 6 0 16 6 23 12 10 11 11
9 5 -6 -5 -13 -4 -17 4 -12 8 5 10 1 5 -10 -5 -13 -3 -15 7 -9 10 6 12 4 7 -9
-5 -11 -3 -15 5 -10 7 5 9 2 6 -7 -3 -9 5 -26 20 -40 24 -23 25 -23 13 -2 -6
13 -17 23 -23 23 -6 0 -8 3 -5 7 9 9 47 -27 47 -44 0 -8 4 -11 10 -8 5 3 10 0
10 -9 0 -8 5 -16 10 -18 6 -2 12 -13 13 -25 0 -12 4 -21 7 -21 21 2 30 -5 30
-21 0 -10 7 -22 16 -25 15 -6 15 -4 3 11 -13 16 -12 17 3 4 10 -7 18 -20 18
-27 0 -12 19 -19 42 -15 4 0 5 -6 1 -15 -5 -13 -7 -13 -14 -2 -6 9 -9 9 -9 1
0 -19 21 -27 31 -12 6 10 9 8 9 -8 0 -13 5 -23 10 -23 6 0 10 -6 10 -14 0 -8
7 -17 16 -20 14 -5 15 -4 4 9 -7 9 -10 18 -6 22 3 3 6 1 6 -6 0 -7 4 -10 8 -7
5 3 9 -1 10 -9 1 -8 3 -22 4 -30 1 -9 7 -14 14 -11 8 3 16 1 19 -5 4 -5 10 -7
15 -4 4 3 7 -3 6 -13 0 -9 5 -16 12 -15 11 3 17 -17 13 -41 -1 -5 6 -3 15 5
12 9 15 9 10 2 -4 -7 -3 -13 2 -13 5 0 19 -9 32 -20 12 -11 28 -17 34 -13 6 4
5 0 -2 -9 -10 -13 -10 -18 -1 -24 8 -4 9 -3 5 4 -4 7 -3 12 2 12 6 0 13 -7 16
-16 3 -8 10 -12 16 -9 5 3 10 -1 10 -9 0 -8 5 -18 12 -22 7 -4 8 -3 4 4 -5 8
-2 10 8 6 9 -3 15 -9 14 -12 -2 -19 4 -30 18 -36 15 -6 15 -4 3 11 -12 17 -12
17 7 0 16 -15 17 -19 4 -27 -21 -13 -3 -12 22 1 15 8 19 8 14 0 -4 -6 -2 -11
4 -11 7 0 10 -6 7 -14 -4 -10 1 -13 18 -11 14 1 22 -2 19 -6 -3 -5 -1 -9 5 -9
5 0 12 6 15 13 3 6 3 2 0 -10 -3 -13 -1 -24 5 -24 11 -2 26 -5 39 -9 4 -1 11
-2 15 -1 4 1 3 -8 -4 -20 -7 -13 -7 -19 -1 -15 6 4 16 -2 22 -11 11 -17 11
-17 6 0 -3 9 -1 17 4 17 6 0 10 -6 10 -12 0 -7 4 -19 9 -27 8 -13 12 -13 28
-1 10 8 15 10 10 5 -11 -13 23 -45 50 -45 15 0 22 -4 18 -11 -4 -6 0 -9 10 -7
10 2 20 -4 22 -12 4 -13 3 -13 -7 0 -10 13 -11 13 -7 0 2 -9 14 -15 30 -14 23
1 25 -1 15 -14 -11 -13 -10 -14 10 -3 19 10 22 9 22 -9 0 -11 5 -20 11 -20 5
0 7 6 4 12 -4 7 0 5 8 -4 8 -10 22 -18 32 -18 10 0 15 -5 12 -13 -3 -8 1 -14
8 -14 8 0 11 7 8 16 -4 11 -1 10 9 -3 9 -12 20 -16 28 -11 9 5 11 4 6 -3 -4
-7 -2 -12 4 -12 6 0 8 -5 4 -12 -5 -8 0 -7 11 2 15 12 17 12 10 1 -6 -11 -2
-13 19 -9 22 4 24 3 14 -9 -10 -12 -9 -15 7 -13 34 4 46 0 40 -10 -3 -5 -1
-10 5 -10 6 0 9 -4 6 -8 -3 -5 1 -9 9 -9 8 0 12 4 9 9 -3 4 0 8 5 8 6 0 11 -7
11 -15 0 -13 4 -14 23 -4 21 12 21 11 7 -6 -14 -17 -13 -18 8 -13 12 4 22 2
22 -4 0 -5 6 -6 13 -2 8 5 7 2 -2 -9 -13 -16 -12 -17 13 -7 36 13 36 13 36
-11 0 -11 5 -17 10 -14 6 4 7 11 4 17 -4 7 -2 8 4 4 6 -4 8 -14 5 -24 -6 -14
-4 -15 9 -4 13 10 18 10 24 1 5 -8 3 -9 -6 -4 -8 5 -11 4 -7 -3 4 -5 16 -8 27
-5 13 4 26 -2 38 -17 15 -19 22 -21 40 -11 14 7 23 8 27 1 4 -6 11 -8 16 -5 5
3 6 0 3 -8 -6 -17 22 -31 32 -15 5 7 2 8 -6 3 -9 -5 -11 -4 -6 4 11 17 26 3
19 -17 -6 -14 -4 -15 8 -6 11 9 17 9 26 -1 6 -7 9 -16 5 -21 -4 -4 -1 -4 6 0
9 6 10 11 3 20 -8 9 -7 13 4 13 8 0 12 -3 10 -7 -2 -3 0 -12 6 -20 6 -11 9
-12 9 -2 0 7 4 11 10 7 5 -3 8 -11 6 -18 -1 -7 -1 -9 1 -4 3 4 9 5 14 2 5 -4
6 2 3 12 -3 11 -2 14 3 8 4 -6 17 -11 27 -10 11 0 21 -7 23 -15 3 -9 1 -11 -4
-5 -11 13 -33 17 -33 6 0 -14 37 -20 49 -8 8 8 11 6 11 -8 0 -18 0 -18 14 1
14 19 14 19 13 -1 -2 -14 4 -20 23 -20 15 -1 24 -6 22 -14 -1 -7 2 -10 7 -6 6
3 9 11 7 18 -1 7 -1 9 1 4 3 -4 10 -4 15 -1 7 4 8 2 4 -4 -5 -8 0 -12 13 -12
12 0 21 5 21 12 0 6 3 8 6 5 4 -4 1 -14 -6 -22 -11 -13 -11 -16 1 -13 8 2 17
10 21 18 5 12 7 12 7 -2 1 -10 6 -18 12 -18 5 0 7 5 3 12 -4 7 -3 8 4 4 7 -4
12 -14 12 -22 0 -8 5 -12 10 -9 6 4 8 12 4 18 -3 7 0 5 8 -3 16 -18 38 -24 38
-10 0 5 5 10 11 10 6 0 9 -7 6 -14 -4 -10 -1 -13 9 -9 8 3 14 -1 14 -8 1 -9 4
-8 11 4 13 23 26 22 34 -4 6 -16 9 -18 15 -8 5 7 6 18 2 24 -3 5 1 4 10 -2 8
-7 19 -9 23 -5 5 4 5 1 1 -6 -4 -7 -12 -9 -18 -6 -6 4 -8 2 -5 -4 4 -5 16 -8
27 -5 11 3 17 10 13 16 -3 6 -1 7 5 3 6 -4 8 -14 5 -23 -4 -10 -2 -14 4 -10 6
4 14 1 17 -5 3 -7 3 -2 0 12 -5 23 -4 24 10 7 9 -12 16 -14 21 -8 3 6 12 11
18 11 7 0 6 -4 -3 -10 -12 -8 -10 -10 10 -10 15 0 31 5 38 10 6 6 10 7 7 4 -2
-4 3 -13 11 -22 12 -12 18 -12 27 -2 10 10 9 11 -3 5 -13 -8 -13 -7 -1 8 14
18 22 22 20 10 -3 -20 2 -31 17 -37 13 -5 14 -3 6 7 -8 10 -6 13 8 13 10 0 17
-4 14 -7 -2 -4 0 -10 6 -14 9 -6 14 8 11 28 -1 5 3 5 9 2 6 -4 9 -13 6 -21 -3
-7 0 -16 6 -20 6 -4 8 -3 5 3 -4 6 2 13 14 16 17 5 18 3 7 -10 -11 -14 -9 -14
19 0 28 15 34 15 46 2 19 -18 31 -7 14 14 -11 14 -10 14 6 2 10 -8 16 -20 13
-28 -3 -8 -1 -11 5 -8 5 4 16 2 23 -4 9 -8 13 -7 13 4 0 8 -4 12 -8 9 -4 -2
-10 0 -14 5 -3 6 5 8 20 5 15 -3 25 0 25 7 0 7 3 9 6 6 4 -4 2 -12 -4 -19 -8
-10 -4 -13 19 -13 16 -1 29 3 29 8 0 5 -8 6 -17 3 -10 -4 -14 -3 -9 1 15 15
61 8 78 -12 17 -20 17 -20 11 3 -3 13 -1 22 6 22 7 0 9 -5 5 -12 -5 -7 -2 -9
9 -5 10 4 14 2 11 -7 -3 -7 2 -13 10 -13 8 0 13 4 10 9 -3 4 -1 8 5 8 5 0 12
-6 14 -12 3 -8 6 -6 6 4 1 11 6 15 16 12 8 -4 12 -10 9 -15 -9 -15 3 -10 17 8
8 10 9 14 2 10 -6 -4 -14 -3 -18 2 -3 6 6 8 21 5 18 -3 23 -1 18 7 -4 8 -3 9
5 5 9 -6 9 -11 0 -22 -10 -12 -9 -13 5 -8 9 3 16 11 16 18 0 6 4 5 9 -4 6 -8
7 -19 3 -25 -3 -5 2 -4 11 3 9 8 21 11 26 7 6 -3 8 0 5 8 -3 8 1 14 10 14 8 0
14 -3 12 -6 -2 -3 3 -13 12 -21 14 -13 15 -12 9 3 -3 9 -2 18 3 18 20 3 25 4
37 12 9 5 11 3 7 -7 -6 -16 19 -17 33 -1 5 4 1 4 -7 0 -13 -8 -13 -7 -1 8 15
18 26 23 16 7 -3 -6 5 -11 19 -11 35 -2 39 -3 55 -13 10 -7 12 -6 6 4 -6 10
-3 12 13 8 16 -4 19 -2 15 10 -5 11 -3 13 8 6 20 -12 40 -14 33 -3 -3 5 -10 6
-16 3 -7 -4 -8 -2 -4 4 8 13 36 5 36 -12 0 -6 4 -5 9 4 6 8 7 19 4 25 -4 5 4
1 17 -10 13 -11 20 -15 17 -9 -4 7 0 15 9 18 8 3 12 2 9 -4 -9 -15 8 -12 33 5
19 14 21 14 16 1 -5 -14 -2 -14 26 0 17 9 34 13 37 10 4 -3 1 -6 -6 -6 -7 0
-9 -5 -5 -11 4 -8 12 -3 20 12 7 13 13 20 14 15 0 -5 8 -2 18 7 15 14 19 15
19 2 0 -8 -4 -12 -9 -9 -4 3 -8 0 -8 -5 0 -15 11 -14 31 5 14 13 21 13 41 3
l23 -12 -20 24 c-13 15 -14 19 -3 11 10 -8 19 -9 22 -3 3 5 15 7 26 4 11 -3
28 1 37 8 9 8 14 9 10 2 -8 -13 18 -12 30 2 4 4 2 5 -4 1 -7 -4 -13 -2 -13 3
0 17 20 13 27 -5 5 -14 8 -12 19 7 7 13 13 18 14 10 0 -8 3 -11 7 -8 3 4 13 1
22 -5 11 -9 10 -6 -2 9 -14 16 -15 23 -6 29 7 4 10 3 5 -4 -10 -17 18 -20 30
-3 10 13 14 13 30 1 15 -13 16 -13 9 -1 -6 11 -4 13 9 8 13 -5 17 -3 13 6 -3
8 1 14 9 14 7 0 11 -4 8 -8 -2 -4 1 -11 7 -15 7 -4 9 -3 6 2 -3 5 4 21 15 34
11 14 17 19 13 12 -14 -28 8 -33 26 -5 21 31 26 24 8 -10 -12 -22 -12 -22 9
-4 12 11 26 16 33 11 8 -5 10 -3 5 5 -5 8 -3 12 5 10 26 -3 39 1 39 12 0 8 -4
8 -14 0 -11 -9 -16 -9 -22 0 -4 7 -3 9 4 5 6 -3 14 -2 17 4 5 8 12 7 23 -2 14
-11 15 -10 8 6 -7 19 -6 19 13 2 18 -16 19 -16 17 1 -1 12 5 17 18 15 10 -2
16 1 12 6 -3 5 1 9 9 9 8 0 12 -4 9 -8 -2 -4 0 -10 5 -13 5 -4 8 5 6 19 -2 20
0 23 11 14 8 -6 11 -16 7 -23 -3 -6 2 -4 13 5 24 20 54 33 74 31 10 -1 11 0 3
4 -23 10 -14 23 15 21 20 -1 27 2 26 15 -1 14 2 15 17 7 14 -7 25 -5 42 6 13
8 27 12 31 8 4 -4 4 1 0 11 -6 15 -4 17 6 11 10 -6 12 -4 6 10 -7 18 -6 18 14
0 20 -19 21 -19 14 1 -7 17 -6 17 9 5 18 -14 24 -2 7 15 -7 7 -6 11 5 11 8 0
15 -4 15 -9 0 -4 5 -8 12 -8 6 0 8 3 5 7 -4 3 2 13 13 20 11 8 17 20 13 26 -3
7 2 5 13 -4 20 -17 44 -15 44 3 0 6 -8 5 -17 -3 -16 -13 -17 -12 -4 4 8 9 16
15 19 12 3 -2 10 3 17 12 9 13 14 13 20 3 5 -8 4 -11 -2 -7 -5 3 -10 0 -10 -8
0 -11 4 -12 14 -4 7 6 10 16 6 22 -4 7 0 8 12 3 16 -6 16 -4 4 10 -13 16 -12
16 7 6 18 -9 25 -8 39 8 9 10 15 22 12 27 -3 4 7 9 21 9 15 1 21 -1 15 -3 -7
-3 -13 -9 -13 -15 0 -6 6 -6 15 2 18 15 20 44 3 34 -8 -4 -9 -3 -5 2 8 9 12
10 55 12 12 1 22 7 22 13 0 5 -5 7 -12 3 -7 -4 -8 -3 -4 5 6 9 11 9 24 -1 13
-11 15 -11 10 3 -5 13 0 15 23 13 27 -3 29 -2 15 12 -21 21 -20 23 10 19 19
-2 28 3 31 16 3 10 9 16 14 13 5 -3 6 -10 3 -16 -4 -7 -2 -8 5 -4 6 4 9 12 6
17 -4 5 -1 10 4 10 6 1 16 2 23 3 7 0 17 11 24 24 6 12 15 26 19 30 5 4 5 1 1
-5 -9 -15 10 -18 19 -3 4 6 11 7 17 4 7 -4 8 -2 4 5 -4 6 -11 9 -16 6 -5 -3
-11 -2 -14 3 -4 7 16 12 61 15 7 0 10 4 7 9 -3 5 -9 6 -13 4 -4 -3 -8 1 -8 9
0 11 5 12 21 3 20 -10 20 -10 6 7 -14 17 -14 18 8 6 13 -7 26 -10 30 -7 3 3 0
6 -6 6 -7 0 -12 5 -12 10 0 6 7 10 15 10 9 0 18 7 21 15 5 13 9 13 22 3 13
-11 14 -10 4 9 -9 16 -9 24 0 29 7 4 8 3 4 -4 -10 -16 2 -15 19 2 8 7 11 16 8
20 -12 12 13 6 26 -7 11 -10 11 -8 1 12 -11 21 -10 23 4 18 13 -5 16 -2 14 13
-2 10 2 19 7 19 6 0 8 -8 7 -17 -3 -11 4 -7 18 10 12 15 18 33 14 39 -4 8 0 8
15 0 17 -9 21 -9 19 1 -2 7 -7 17 -13 21 -5 5 0 5 13 2 12 -4 22 -3 21 2 -1 4
-1 15 0 23 1 13 2 13 11 0 6 -10 10 -11 10 -2 0 6 8 12 18 12 15 1 15 2 -2 15
-19 14 -12 21 17 16 4 0 7 3 7 8 0 5 8 8 18 7 11 -1 16 5 14 16 -2 11 3 18 13
18 9 0 14 4 10 9 -3 6 2 14 11 19 9 5 15 12 15 15 -1 4 1 6 4 5 2 -2 11 6 20
17 9 11 13 14 9 6 -5 -10 -3 -12 5 -6 7 4 11 15 8 25 -3 14 -1 17 11 13 11 -5
14 -2 9 11 -4 9 -3 15 2 11 17 -10 40 6 36 27 -4 16 -2 18 11 7 12 -10 13 -9
8 6 -5 13 -4 16 4 11 7 -4 12 -1 12 8 0 9 5 16 11 16 5 0 7 -6 3 -13 -4 -7 -3
-9 2 -4 9 9 10 13 13 43 0 9 6 12 13 8 8 -5 9 -2 4 11 -5 15 -4 16 8 6 12 -10
14 -8 11 15 -2 19 3 28 17 32 12 3 17 10 13 20 -4 12 -3 13 10 2 13 -11 14
-10 9 4 -3 9 -2 16 4 16 5 0 12 9 15 20 3 11 12 20 21 20 9 0 16 5 16 11 0 5
-6 7 -12 3 -10 -5 -10 -4 -1 6 6 7 9 20 6 29 -4 13 -3 13 5 2 8 -12 14 -11 36
6 23 19 24 22 8 28 -15 6 -13 10 12 30 17 13 33 22 37 19 4 -2 6 7 3 22 -4 20
-1 25 10 21 19 -7 28 17 13 33 -9 10 -9 11 1 6 6 -4 12 -2 12 4 0 6 4 9 9 5 5
-3 13 0 17 6 4 8 3 9 -4 5 -7 -4 -12 -2 -12 4 0 6 -5 8 -12 4 -7 -4 -8 -3 -4
4 4 6 13 9 20 6 24 -9 42 33 21 49 -5 5 0 5 13 2 13 -4 22 -2 22 4 0 6 -4 11
-10 11 -5 0 -2 8 8 18 9 11 20 17 24 15 4 -2 5 3 2 11 -3 9 -1 16 5 16 6 0 11
5 11 11 0 5 -4 7 -10 4 -6 -3 -7 1 -4 10 4 11 10 12 18 6 8 -7 12 -4 13 10 1
11 -2 17 -6 15 -4 -3 -8 1 -8 8 0 8 7 12 15 8 10 -4 13 -1 8 7 -5 8 -1 14 13
18 12 3 21 10 21 15 0 5 -4 7 -8 4 -5 -3 -9 1 -9 9 0 8 4 12 9 9 4 -3 8 2 8
11 0 9 5 13 10 10 6 -3 10 0 10 8 0 8 7 20 15 27 11 9 12 17 4 32 -10 18 -8
19 12 13 22 -7 22 -7 6 9 -19 19 -23 31 -7 21 12 -8 40 12 40 28 0 6 -7 2 -15
-9 -8 -10 -15 -14 -15 -7 0 7 12 24 28 39 15 15 18 21 8 13 -18 -13 -19 -12
-12 6 5 11 9 26 9 33 0 7 6 11 13 8 8 -3 16 0 20 6 4 6 3 8 -3 5 -6 -4 -14 0
-17 9 -9 23 -7 31 4 14 8 -13 11 -13 22 -1 10 10 10 12 1 7 -9 -5 -12 1 -11
18 1 15 6 26 11 26 5 0 7 7 3 15 -5 13 -2 14 17 4 20 -11 21 -11 8 4 -7 10
-10 17 -5 17 5 0 2 5 -6 10 -13 8 -13 10 2 10 9 0 20 5 24 12 5 7 3 8 -7 3
-12 -8 -12 -6 0 8 7 9 11 26 8 37 -4 17 -2 18 14 9 11 -5 19 -6 19 0 0 5 -6
11 -14 14 -15 6 -16 23 -2 45 5 9 11 10 20 3 9 -8 12 -6 11 9 -1 11 -5 23 -10
27 -4 5 -5 2 0 -6 6 -10 4 -12 -4 -7 -9 6 -9 11 -1 21 7 8 8 20 4 27 -6 9 -3
9 9 -1 15 -12 17 -12 11 4 -5 11 -4 16 3 12 5 -3 10 0 10 8 0 8 -4 12 -8 9 -4
-2 -11 0 -14 6 -4 6 -3 10 2 9 19 -3 30 2 30 16 0 10 -4 12 -12 5 -8 -7 -12
-5 -12 4 0 8 9 13 21 12 16 -2 21 3 22 23 3 69 5 82 12 77 12 -7 10 48 -2 56
-7 5 -7 8 2 8 6 0 12 9 12 19 0 11 -6 22 -12 25 -7 3 1 4 17 1 21 -4 26 -3 16
4 -11 7 -12 13 -4 23 6 7 7 22 3 33 -5 15 -2 23 12 31 18 10 19 12 4 17 -11 5
-15 3 -10 -5 4 -7 3 -8 -4 -4 -6 4 -9 13 -6 21 4 8 10 13 14 10 15 -9 20 12 6
24 -18 16 -13 46 8 45 8 -1 14 2 11 6 -3 5 -2 10 2 13 5 2 3 3 -2 2 -6 -2 -17
5 -25 13 -13 14 -12 15 2 10 12 -5 16 0 17 25 2 64 5 77 17 73 13 -5 13 19 -1
31 -4 5 -5 1 0 -7 5 -8 4 -12 0 -7 -14 12 -13 47 2 47 8 0 11 8 9 23 -3 12 -5
22 -6 22 -1 0 -3 12 -4 27 -2 15 1 25 6 22 4 -3 8 -2 9 3 5 43 5 61 -2 57 -4
-2 -10 0 -14 6 -3 5 1 10 9 10 12 0 14 5 6 25 -6 15 -6 26 0 30 6 4 10 11 10
16 0 6 -5 7 -12 3 -6 -4 -8 -3 -4 4 3 5 3 12 -1 15 -5 2 -2 2 5 1 16 -4 16 8
0 25 -11 11 -10 13 3 9 11 -4 15 1 15 18 0 13 -6 24 -12 24 -7 0 -16 4 -19 10
-3 6 1 7 10 4 11 -5 14 -2 9 10 -3 9 -11 13 -18 9 -6 -3 -2 3 8 15 11 12 16
22 11 22 -4 0 -2 6 4 13 8 10 7 14 -4 14 -8 0 -12 -4 -9 -9 3 -4 0 -8 -5 -8
-14 0 -14 13 1 28 7 7 8 12 2 12 -5 0 -10 10 -11 23 -1 12 -3 32 -6 44 -4 15
-2 20 7 17 7 -3 13 2 13 10 0 8 -6 12 -12 10 -6 -3 -12 2 -12 10 0 8 7 12 16
9 11 -3 10 0 -3 11 -18 15 -15 21 8 17 5 -1 3 5 -4 14 -7 9 -13 31 -12 50 1
20 -3 35 -10 35 -7 0 -7 4 1 14 8 9 8 16 2 20 -5 4 -8 18 -5 31 2 14 0 25 -6
25 -6 0 -8 -4 -5 -10 3 -6 1 -10 -4 -10 -13 0 -14 17 -2 24 11 7 9 32 -4 43
-4 4 -5 2 0 -6 6 -10 4 -12 -5 -6 -10 6 -9 11 5 22 11 7 14 13 7 13 -6 0 -9 6
-6 14 3 8 1 17 -4 20 -5 3 -8 -6 -6 -19 1 -14 -2 -25 -6 -25 -10 0 -7 40 5 59
5 9 4 12 -2 8 -6 -4 -14 0 -17 9 -3 8 -2 12 3 9 5 -3 12 -1 16 5 6 9 -8 14
-28 11 -5 -1 -6 3 -2 9 3 6 10 8 14 6 4 -3 8 1 8 8 0 9 -7 12 -16 8 -14 -5
-14 -3 -3 10 10 13 10 18 1 24 -8 5 -9 3 -4 -7 8 -12 6 -12 -8 0 -16 13 -14
36 3 26 5 -3 12 0 16 6 5 8 3 9 -6 4 -10 -6 -12 -4 -7 8 4 11 2 14 -9 10 -10
-3 -12 0 -8 10 3 8 1 18 -5 21 -14 9 -2 37 13 30 6 -3 1 3 -12 14 -15 14 -18
22 -10 25 10 4 10 6 1 6 -7 1 -13 10 -13 21 0 11 6 20 13 20 6 1 0 7 -15 15
-19 11 -25 20 -21 35 4 16 2 19 -13 14 -18 -5 -18 -5 -1 6 9 6 17 16 17 22 0
7 -6 6 -15 -2 -9 -7 -18 -10 -22 -6 -3 3 -1 6 5 6 7 0 12 7 12 16 0 9 -5 12
-12 8 -9 -5 -9 -2 1 9 13 17 6 23 -21 18 -13 -2 -9 6 9 20 14 12 16 12 8 0 -5
-9 -4 -12 3 -7 11 7 -16 66 -31 66 -4 0 0 -12 9 -27 l16 -28 -20 25 c-15 18
-18 28 -10 37 7 9 7 13 -2 13 -9 0 -9 4 1 17 12 14 12 16 0 8 -11 -6 -13 -4
-8 8 3 9 2 19 -4 22 -5 4 -6 11 -3 17 5 7 1 9 -9 5 -9 -3 -19 -1 -23 5 -4 7
-3 8 4 4 7 -4 12 -2 12 3 0 6 -5 11 -11 11 -8 0 -8 4 -1 13 8 10 5 20 -12 40
-13 15 -27 23 -31 19 -4 -4 -2 4 5 17 9 18 9 22 0 16 -9 -5 -10 -2 -6 12 6 20
-8 41 -29 42 -5 0 -11 10 -11 22 -1 12 -8 25 -15 30 -12 7 -12 9 0 9 11 0 10
4 -5 16 -10 8 -13 12 -5 8 10 -5 12 -3 7 5 -5 7 -14 10 -22 7 -8 -3 -11 0 -7
9 3 8 10 12 17 8 6 -3 3 3 -7 14 -9 11 -14 23 -10 28 5 4 2 5 -5 1 -10 -6 -10
-11 -2 -21 8 -10 8 -15 -1 -21 -7 -4 -9 -3 -5 4 3 6 2 13 -3 16 -5 4 -8 17 -6
31 1 14 -4 30 -11 36 -8 6 -11 15 -9 20 3 4 -7 15 -22 23 -15 8 -22 15 -14 16
10 0 11 3 2 13 -6 8 -7 18 -3 22 4 5 2 5 -5 2 -6 -4 -18 -1 -26 7 -8 8 -18 12
-22 8 -5 -4 -5 -1 -1 6 6 10 11 10 24 1 10 -7 4 0 -11 15 -16 16 -26 34 -23
42 3 8 0 13 -7 11 -7 -1 -11 4 -9 12 1 7 -15 31 -38 52 -38 37 -53 58 -28 43
7 -4 8 -3 4 5 -4 6 -11 9 -16 6 -5 -3 -12 6 -16 20 -3 13 -10 23 -14 20 -4 -3
-11 2 -14 11 -4 10 -2 13 7 8 7 -4 7 -1 -2 7 -10 11 -15 11 -18 2 -3 -7 -9
-13 -14 -13 -6 0 -7 6 -2 13 11 18 13 38 2 31 -5 -3 -9 0 -9 6 0 6 -4 8 -10 5
-9 -6 -14 10 -13 42 0 7 -4 11 -11 10 -6 -1 -10 3 -9 10 2 7 -4 10 -13 6 -13
-5 -15 -1 -10 18 3 13 3 18 0 12 -4 -10 -9 -10 -20 1 -8 8 -14 20 -14 26 0 6
-5 8 -12 4 -8 -5 -9 -2 -5 9 3 9 1 19 -5 23 -7 4 -8 3 -4 -4 4 -7 3 -12 -3
-12 -5 0 -12 8 -16 19 -3 10 -14 29 -25 41 -11 12 -17 27 -14 32 4 6 -3 5 -14
-1 -14 -7 -23 -8 -27 -1 -3 5 -3 10 2 10 4 0 1 5 -7 11 -13 9 -13 10 0 6 8 -2
14 -10 12 -16 -1 -7 2 -9 8 -6 8 5 6 13 -4 24 -9 10 -13 21 -9 26 5 4 2 5 -5
1 -16 -10 -44 12 -35 28 4 8 2 7 -7 -1 -7 -6 -19 -9 -27 -6 -11 4 -10 8 4 19
13 10 14 14 3 12 -8 -2 -14 4 -15 12 0 9 -8 14 -19 12 -13 -2 -17 1 -13 11 4
10 -1 13 -19 11 -13 -1 -24 2 -24 8 0 6 8 7 18 4 15 -5 14 -4 -2 9 -10 8 -23
12 -28 8 -6 -3 -5 4 2 17 11 20 10 21 -12 9 -13 -6 -20 -8 -16 -4 13 14 -13
37 -28 25 -14 -13 -14 5 0 29 7 10 3 12 -14 6 -19 -6 -22 -4 -17 9 4 9 2 16
-2 16 -5 0 -12 -6 -14 -12 -3 -7 -6 -2 -6 11 -1 18 -5 22 -21 18 -11 -3 -18
-1 -15 3 7 11 -24 42 -35 35 -5 -3 -14 5 -21 17 -20 36 -36 50 -43 35 -4 -6
-4 -1 -2 11 3 13 2 21 -1 18 -4 -3 -13 0 -22 7 -14 11 -14 10 -2 -6 12 -15 12
-17 -3 -11 -9 3 -16 15 -16 26 0 10 -4 17 -9 14 -5 -4 -12 0 -14 6 -4 10 -7
10 -14 1 -6 -9 -12 -7 -22 8 -7 12 -8 19 -3 15 5 -3 9 0 9 7 0 7 -8 13 -18 13
-10 0 -15 -5 -12 -10 4 -5 1 -6 -6 -2 -7 5 -10 14 -7 22 5 12 -11 19 -36 15
-5 0 -8 3 -8 9 0 5 5 10 12 10 6 0 8 3 5 6 -4 4 -13 1 -21 -5 -12 -10 -17 -8
-26 11 -11 22 -10 22 4 4 9 -11 16 -15 16 -9 0 17 -27 36 -34 24 -8 -12 -36
-3 -36 11 0 7 5 6 13 -1 10 -8 14 -7 14 4 0 7 -3 14 -6 13 -21 -2 -31 4 -25
15 6 10 4 10 -7 0 -16 -15 -33 -17 -24 -3 3 6 1 10 -5 10 -6 0 -8 5 -4 12 5 8
-2 9 -27 5 -34 -7 -34 -7 -9 8 14 9 18 15 10 14 -31 -3 -42 1 -37 14 4 10 -3
12 -25 9 -24 -4 -29 -2 -23 8 6 10 4 12 -10 6 -15 -5 -16 -4 -6 8 10 12 9 13
-8 9 -15 -4 -21 -1 -21 11 0 11 -9 16 -26 16 -19 0 -25 4 -20 15 3 8 1 15 -4
15 -6 0 -10 -8 -11 -17 0 -15 -2 -15 -9 2 -4 12 -16 27 -26 35 -11 9 -15 10
-10 3 11 -19 -2 -16 -26 7 -17 16 -25 17 -42 8 -19 -10 -20 -10 -7 6 12 14 12
16 -4 10 -13 -5 -16 -4 -11 4 4 7 2 12 -3 12 -6 0 -11 -6 -11 -12 0 -9 -3 -8
-9 2 -6 8 -7 18 -4 24 3 5 1 6 -4 3 -6 -4 -16 0 -23 8 -7 8 -16 13 -20 10 -5
-3 -11 -1 -15 4 -3 6 -13 7 -22 4 -12 -5 -14 -3 -8 8 7 12 6 12 -7 1 -13 -10
-18 -10 -24 -1 -5 8 -3 9 7 4 12 -8 12 -6 0 8 -11 13 -17 14 -35 5 -19 -10
-20 -10 -7 6 8 9 11 19 7 23 -3 3 -6 1 -6 -5 0 -7 -7 -12 -16 -12 -9 0 -12 5
-8 13 6 10 4 10 -7 0 -7 -7 -18 -13 -24 -13 -5 0 -3 5 5 10 11 7 11 10 2 10
-7 0 -10 5 -7 11 4 6 -3 5 -15 -3 -18 -10 -24 -10 -27 0 -3 6 -10 9 -16 5 -7
-4 -6 1 2 10 15 19 8 22 -20 7 -20 -11 -25 -2 -9 18 7 9 7 9 -2 2 -7 -6 -19
-5 -32 1 -20 10 -20 10 -2 -5 11 -9 15 -16 10 -16 -6 0 -20 11 -32 25 -14 16
-27 22 -38 18 -13 -5 -15 -3 -9 7 5 9 4 11 -3 6 -24 -15 -51 -15 -45 0 3 8 1
14 -5 14 -6 0 -13 -6 -15 -12 -3 -8 -6 -5 -6 6 -1 13 -6 17 -21 13 -14 -4 -20
0 -20 11 0 15 -2 15 -10 2 -8 -13 -10 -12 -10 4 0 11 -3 16 -6 13 -4 -3 -16
-2 -28 4 -17 9 -17 7 4 -11 21 -18 21 -20 4 -11 -12 6 -24 7 -28 4 -3 -3 -6 2
-6 11 0 14 -6 17 -22 13 -22 -6 -63 14 -53 25 3 3 -5 5 -17 5 -43 1 -49 3 -42
16 5 9 4 9 -6 0 -7 -6 -19 -9 -28 -6 -10 4 -13 2 -8 -5 13 -21 -2 -13 -30 16
-15 15 -23 20 -17 12 9 -13 5 -15 -23 -16 -19 0 -31 2 -27 5 5 3 9 13 11 21 3
11 -2 10 -17 -4 -17 -16 -21 -16 -21 -4 0 11 -7 14 -26 10 -21 -4 -25 -2 -19
9 6 11 5 12 -6 2 -16 -16 -33 -17 -23 -1 5 7 3 8 -7 3 -27 -17 -47 -13 -43 9
3 21 3 21 -11 2 -8 -11 -15 -16 -15 -12 0 5 -8 2 -17 -5 -15 -11 -16 -11 -5 1
6 8 12 21 11 30 0 10 -2 11 -6 2 -2 -6 -10 -9 -15 -6 -7 4 -8 2 -4 -4 4 -7 2
-12 -3 -12 -6 0 -11 6 -11 13 0 8 -4 7 -10 -3 -8 -13 -10 -12 -10 3 0 21 -8
22 -31 1 -17 -15 -18 -15 -15 3 5 24 -16 25 -54 4 -23 -13 -24 -13 -11 2 13
16 2 25 -13 10 -9 -9 -46 -11 -41 -2 3 4 -2 10 -11 13 -8 3 -13 2 -10 -3 8
-12 -24 -23 -38 -13 -6 4 -47 8 -91 7 -80 -1 -110 7 -98 29 3 6 -4 2 -17 -9
-18 -16 -22 -17 -18 -4 5 13 1 16 -20 14 -15 -2 -34 -4 -42 -6 -8 -2 -14 2
-12 9 3 15 -1 15 -16 0z m72 -20 c-3 -5 -10 -6 -15 -3 -5 4 -9 1 -9 -6 0 -7
-3 -10 -6 -6 -9 9 3 24 20 24 8 0 13 -4 10 -9z m406 -27 c0 -6 -4 -12 -8 -15
-5 -3 -9 1 -9 9 0 8 4 15 9 15 4 0 8 -4 8 -9z m-1104 -53 c3 -4 -1 -5 -10 -4
-8 1 -18 5 -22 8 -3 4 1 5 10 4 8 -1 18 -5 22 -8z m1555 -45 c12 -16 12 -17
-2 -6 -9 7 -20 9 -24 5 -5 -4 -5 -1 -1 6 9 16 11 15 27 -5z m-1907 -31 c3 -5
-1 -9 -9 -9 -8 0 -15 4 -15 9 0 4 4 8 9 8 6 0 12 -4 15 -8z m-224 -72 c0 -5
-5 -10 -11 -10 -5 0 -7 5 -4 10 3 6 8 10 11 10 2 0 4 -4 4 -10z m2723 -105
c-3 -9 -8 -14 -10 -11 -3 3 -2 9 2 15 9 16 15 13 8 -4z m89 -30 c3 3 11 -1 17
-9 8 -10 9 -16 1 -21 -6 -4 -9 -1 -8 6 2 7 -3 14 -9 15 -7 1 -16 3 -20 4 -5 1
-12 2 -16 1 -5 -1 -6 3 -2 9 5 8 11 8 19 1 7 -6 15 -9 18 -6z m128 -70 c11
-13 10 -14 -4 -9 -9 3 -16 10 -16 15 0 13 6 11 20 -6z m55 -24 c3 -5 2 -12 -3
-15 -5 -3 -9 1 -9 9 0 17 3 19 12 6z m-3595 -61 c0 -5 -5 -10 -11 -10 -5 0 -7
5 -4 10 3 6 8 10 11 10 2 0 4 -4 4 -10z m-1036 -921 c-3 -5 -10 -7 -15 -3 -5
3 -7 10 -3 15 3 5 10 7 15 3 5 -3 7 -10 3 -15z m-54 -75 c0 -8 -19 -13 -24 -6
-3 5 1 9 9 9 8 0 15 -2 15 -3z m6004 -148 c11 -18 13 -27 4 -32 -6 -4 -8 -3
-5 3 4 5 -3 20 -14 31 -11 12 -16 22 -11 22 6 0 17 -11 26 -24z m20 -62 c3 -8
2 -12 -4 -9 -6 3 -10 10 -10 16 0 14 7 11 14 -7z m76 -88 c0 -3 -4 -8 -10 -11
-5 -3 -10 -1 -10 4 0 6 5 11 10 11 6 0 10 -2 10 -4z m40 -52 c0 -2 -7 -4 -15
-4 -8 0 -15 4 -15 10 0 5 7 7 15 4 8 -4 15 -8 15 -10z m15 -34 c3 -5 -1 -10
-10 -10 -9 0 -13 5 -10 10 3 6 8 10 10 10 2 0 7 -4 10 -10z m115 -220 c0 -5
-4 -10 -10 -10 -5 0 -10 5 -10 10 0 6 5 10 10 10 6 0 10 -4 10 -10z m-6660
-16 c0 -8 -5 -12 -10 -9 -6 4 -8 11 -5 16 9 14 15 11 15 -7z m6701 -81 c13
-17 13 -17 -6 -3 -11 8 -22 16 -24 17 -2 2 0 3 6 3 6 0 17 -8 24 -17z m34 -82
c3 -5 0 -13 -6 -17 -7 -4 -9 -3 -5 4 3 5 0 13 -6 15 -9 4 -10 6 -1 6 6 1 14
-3 18 -8z m-6925 -405 c0 -2 -8 -10 -17 -17 -16 -13 -17 -12 -4 4 13 16 21 21
21 13z m7140 -416 c0 -5 -4 -10 -10 -10 -5 0 -10 5 -10 10 0 6 5 10 10 10 6 0
10 -4 10 -10z m35 -370 c3 -6 -1 -7 -9 -4 -18 7 -21 14 -7 14 6 0 13 -4 16
-10z m-21 -296 c3 -8 2 -12 -4 -9 -6 3 -10 10 -10 16 0 14 7 11 14 -7z m-7224
-314 c0 -5 -5 -10 -11 -10 -5 0 -7 5 -4 10 3 6 8 10 11 10 2 0 4 -4 4 -10z
m7173 -64 c3 -8 -2 -20 -11 -27 -14 -11 -15 -11 -5 0 6 7 9 20 6 27 -3 8 -3
14 0 14 3 0 7 -6 10 -14z m-26 -131 c0 -8 -4 -12 -9 -9 -5 3 -6 10 -3 15 9 13
12 11 12 -6z m-7097 -65 c0 -5 -2 -10 -4 -10 -3 0 -8 5 -11 10 -3 6 -1 10 4
10 6 0 11 -4 11 -10z m7077 -8 c0 -10 -6 -19 -13 -19 -9 0 -9 5 -1 19 7 10 13
18 14 18 1 0 1 -8 0 -18z m-7047 -66 c0 -3 -4 -8 -10 -11 -5 -3 -10 -1 -10 4
0 6 5 11 10 11 6 0 10 -2 10 -4z m148 -451 c-3 -3 -9 2 -12 12 -6 14 -5 15 5
6 7 -7 10 -15 7 -18z m6654 -155 c-22 -26 -24 -25 -10 5 6 13 15 22 19 19 5
-2 1 -14 -9 -24z m-6365 -377 c-4 -3 -2 -12 4 -20 18 -21 4 -15 -16 7 -17 19
-17 20 0 20 10 0 15 -3 12 -7z m6133 -37 c0 -2 -8 -10 -17 -17 -16 -13 -17
-12 -4 4 13 16 21 21 21 13z m-6090 -26 c0 -5 -5 -10 -11 -10 -5 0 -7 5 -4 10
3 6 8 10 11 10 2 0 4 -4 4 -10z m6040 -54 c0 -3 -4 -8 -10 -11 -5 -3 -10 -1
-10 4 0 6 5 11 10 11 6 0 10 -2 10 -4z m-190 -226 c0 -5 -5 -10 -11 -10 -5 0
-7 5 -4 10 3 6 8 10 11 10 2 0 4 -4 4 -10z m-5530 -122 c0 -4 -4 -8 -9 -8 -6
0 -12 4 -15 8 -3 5 1 9 9 9 8 0 15 -4 15 -9z m4852 -530 c-7 -7 -12 -8 -12 -2
0 14 12 26 19 19 2 -3 -1 -11 -7 -17z m-4172 -69 c0 -6 -4 -7 -10 -4 -5 3 -10
11 -10 16 0 6 5 7 10 4 6 -3 10 -11 10 -16z m55 -37 c-3 -3 -11 0 -18 7 -9 10
-8 11 6 5 10 -3 15 -9 12 -12z m3820 -71 c3 -5 2 -12 -3 -15 -5 -3 -9 1 -9 9
0 17 3 19 12 6z m-306 -168 c-6 -7 -17 -13 -23 -12 -7 0 -6 2 2 6 6 2 10 8 8
12 -3 4 1 8 9 8 11 0 12 -4 4 -14z m-124 -42 c3 -5 2 -12 -3 -15 -5 -3 -9 1
-9 9 0 17 3 19 12 6z m-35 -26 c-7 -9 -15 -13 -19 -10 -3 3 1 10 9 15 21 14
24 12 10 -5z m-2690 -27 c0 -4 -4 -8 -9 -8 -6 0 -12 4 -15 8 -3 5 1 9 9 9 8 0
15 -4 15 -9z m340 -106 c0 -5 -7 -9 -15 -9 -8 0 -12 4 -9 9 3 4 9 8 15 8 5 0
9 -4 9 -8z m1355 -121 c-9 -8 -36 -10 -30 -2 2 4 11 8 20 8 8 0 13 -3 10 -6z"/>
<path d="M3813 7257 c0 -16 34 -20 43 -5 4 7 2 8 -5 4 -6 -4 -18 -3 -25 3 -9
8 -13 7 -13 -2z"/>
<path d="M3606 7248 c3 -5 10 -6 15 -3 13 9 11 12 -6 12 -8 0 -12 -4 -9 -9z"/>
<path d="M3870 7248 c0 -4 4 -8 9 -8 6 0 12 4 15 8 3 5 -1 9 -9 9 -8 0 -15 -4
-15 -9z"/>
<path d="M3910 7248 c0 -4 4 -8 9 -8 6 0 12 4 15 8 3 5 -1 9 -9 9 -8 0 -15 -4
-15 -9z"/>
<path d="M3950 7250 c0 -5 5 -10 11 -10 5 0 7 5 4 10 -3 6 -8 10 -11 10 -2 0
-4 -4 -4 -10z"/>
<path d="M3984 7248 c3 -15 26 -23 26 -8 0 6 -4 9 -9 6 -5 -4 -12 -1 -14 4 -3
6 -4 5 -3 -2z"/>
<path d="M2874 7154 c-18 -14 -18 -14 6 -3 31 14 36 19 24 19 -6 0 -19 -7 -30
-16z"/>
<path d="M2823 7143 c0 -9 4 -10 14 -2 7 6 13 12 13 14 0 1 -6 2 -13 2 -8 0
-14 -6 -14 -14z"/>
<path d="M4683 7125 c0 -8 4 -12 9 -9 5 3 6 10 3 15 -9 13 -12 11 -12 -6z"/>
<path d="M4891 7054 c0 -11 3 -14 6 -6 3 7 2 16 -1 19 -3 4 -6 -2 -5 -13z"/>
<path d="M2493 7045 c0 -8 4 -12 9 -9 5 3 6 10 3 15 -9 13 -12 11 -12 -6z"/>
<path d="M2210 6925 c-11 -13 -10 -14 4 -9 9 3 16 10 16 15 0 13 -6 11 -20 -6z"/>
<path d="M6066 6377 c3 -10 9 -15 12 -12 3 3 0 11 -7 18 -10 9 -11 8 -5 -6z"/>
<path d="M1320 6371 c0 -6 4 -13 10 -16 6 -3 7 1 4 9 -7 18 -14 21 -14 7z"/>
<path d="M1260 6299 c0 -5 5 -7 10 -4 6 3 10 8 10 11 0 2 -4 4 -10 4 -5 0 -10
-5 -10 -11z"/>
<path d="M874 5914 c-18 -14 -18 -15 4 -4 12 6 22 13 22 15 0 8 -5 6 -26 -11z"/>
<path d="M634 5582 c3 -5 0 -12 -6 -15 -7 -2 -10 -7 -7 -11 3 -4 12 0 18 8 9
11 9 16 0 22 -7 4 -9 3 -5 -4z"/>
<path d="M7026 5185 c-9 -26 -7 -32 5 -12 6 10 9 21 6 23 -2 3 -7 -2 -11 -11z"/>
<path d="M115 4330 c-3 -5 -1 -10 4 -10 6 0 11 5 11 10 0 6 -2 10 -4 10 -3 0
-8 -4 -11 -10z"/>
<path d="M77 4065 c3 -8 9 -12 14 -9 12 7 11 11 -5 17 -10 4 -13 1 -9 -8z"/>
<path d="M7364 3936 c1 -8 5 -18 8 -22 4 -3 5 1 4 10 -1 8 -5 18 -8 22 -4 3
-5 -1 -4 -10z"/>
<path d="M55 3870 c-3 -5 -2 -10 4 -10 5 0 13 5 16 10 3 6 2 10 -4 10 -5 0
-13 -4 -16 -10z"/>
<path d="M7363 3505 c0 -7 6 -11 14 -8 7 3 13 6 13 8 0 2 -6 5 -13 8 -8 3 -14
-1 -14 -8z"/>
<path d="M7346 3323 c-4 -9 -3 -20 1 -24 4 -4 9 3 9 17 2 28 -1 31 -10 7z"/>
<path d="M7323 3215 c0 -8 4 -15 9 -15 4 0 8 4 8 9 0 6 -4 12 -8 15 -5 3 -9
-1 -9 -9z"/>
<path d="M189 2767 c6 -8 7 -18 3 -22 -4 -5 -1 -5 6 -1 10 6 10 11 1 22 -6 8
-14 14 -16 14 -3 0 0 -6 6 -13z"/>
<path d="M7185 2660 c-3 -5 -1 -10 4 -10 6 0 11 5 11 10 0 6 -2 10 -4 10 -3 0
-8 -4 -11 -10z"/>
<path d="M7126 2464 c-5 -14 -4 -15 9 -4 17 14 19 20 6 20 -5 0 -12 -7 -15
-16z"/>
<path d="M325 2410 c-3 -5 -1 -10 4 -10 6 0 11 5 11 10 0 6 -2 10 -4 10 -3 0
-8 -4 -11 -10z"/>
<path d="M504 2022 c0 -10 6 -19 13 -19 8 0 9 6 2 19 -5 10 -11 18 -12 18 -2
0 -3 -8 -3 -18z"/>
<path d="M536 1962 c-3 -5 1 -9 9 -9 8 0 12 4 9 9 -3 4 -7 8 -9 8 -2 0 -6 -4
-9 -8z"/>
<path d="M6740 1740 c-9 -6 -10 -10 -3 -10 6 0 15 5 18 10 8 12 4 12 -15 0z"/>
<path d="M1590 809 c0 -5 5 -7 10 -4 6 3 10 8 10 11 0 2 -4 4 -10 4 -5 0 -10
-5 -10 -11z"/>
<path d="M2424 379 c-4 -7 -3 -9 4 -5 5 3 13 0 15 -6 4 -9 6 -10 6 -1 1 17
-16 25 -25 12z"/>
<path d="M3010 210 c0 -5 5 -10 11 -10 5 0 7 5 4 10 -3 6 -8 10 -11 10 -2 0
-4 -4 -4 -10z"/>
<path d="M3436 152 c-3 -5 1 -9 9 -9 8 0 12 4 9 9 -3 4 -7 8 -9 8 -2 0 -6 -4
-9 -8z"/>
</g>
</svg>
